# xmcd CD database file
#
# Track frame offsets:
#	150
#	21783
#	47080
#	73368
#	88649
#	109536
#	132738
#	152750
#	169007
#	186721
#	208691
#	226147
#	241654
#	260320
#	290590
#
# Disc length: 4058 seconds
#
# Revision: 1
# Processed by: cddbd v1.4PL0 Copyright (c) Steve Scherf et al.
# Submitted via: NeoAudio 9.9.9
#
DISCID=d80fd80f
DTITLE=Varios - Salsa
DYEAR=1900
DGENRE=Salsa
TTITLE0=David Pabon-Te Acepto
TTITLE1=Jimy Sabater-Volare
TTITLE2=Bobby Valentin-Linda Teresa
TTITLE3=Rafael cortijo-Domino
TTITLE4=Jonny Ray-Tiene La Mente Loca
TTITLE5=Roberto Roena-El Valor Que Se Ve
TTITLE6=Lalo Rodriguez-Vivo Amandote
TTITLE7=Hermanos Cabria-Mango Del Monte
TTITLE8=Gilberto Santa Rosa-Pero No Me Ama
TTITLE9=Choco Orta-Basta
TTITLE10=Polo Montañez-Guajiro Natural
TTITLE11=Joe Quijano-Punto Final
TTITLE12=Jose Bello-No Te He Dejado De Amar
TTITLE13=Bobby Valentin-Si Un Dia Te Sientes Sola
TTITLE14=Junucho Lopez-Bocoro
EXTD=
EXTT0=
EXTT1=
EXTT2=
EXTT3=
EXTT4=
EXTT5=
EXTT6=
EXTT7=
EXTT8=
EXTT9=
EXTT10=
EXTT11=
EXTT12=
EXTT13=
EXTT14=
PLAYORDER=
